# xmcd
#
# Track frame offsets: 
#        150
#        33499
#        70966
#        100784
#        132511
#        162172
#        188592
#        215674
#        249432
#        280148
#        314876
#
# Disc length: 4752 seconds
#
# Revision: 6
# Processed by: cddbd v1.5.2PL0 Copyright (c) Steve Scherf et al.
# Submitted via: ExactAudioCopyFreeDBPlugin 1.0
#
DISCID=a4128e0b
DTITLE=Various Artist - Philadelphia International:  The Re-Edits
DYEAR=2012
DGENRE=Soul
TTITLE0=Harold Melvin and The Blue Notes - Satisfaction Guaranteed (Or T
TTITLE0=ake Your Love Back) (re-edit by Morning Star)
TTITLE1=Billy Paul - Only the Strong Survive (re-edit by J*Ski)
TTITLE2=The Trammps - Save a Place (extended re-edit by J*Ski extended
TTITLE2=)
TTITLE3=Jean Carn - Free Love (re-edit by Victor Rosado)
TTITLE4=People's Choice - Do it Any Way You Wanna (re-edit by Keep Sch
TTITLE4=tum)
TTITLE5=Dexter Wansel - Life on Mar (re-edit by DJ Mila)
TTITLE6=M.F.S.B. - Mysteries of the World (re-edit by J*Ski Extended)
TTITLE7=McFadden and Whitehead - Ain't No Stoppin' Us Now (re-work by Th
TTITLE7=e Noodleman)
TTITLE8=The Jones Girls - Dance Turned Into a Romance (re-edit by DJ F
TTITLE8=riction)
TTITLE9=Harold Melvin and The Blue Notes - Be for Real (re-edit by Tim M
TTITLE9=cAllister)
TTITLE10=The O'Jays - Message in Our Music (re-edit by Jimmy The Twin)
EXTD=
EXTT0=
EXTT1=
EXTT2=
EXTT3=
EXTT4=
EXTT5=
EXTT6=
EXTT7=
EXTT8=
EXTT9=
EXTT10=
PLAYORDER=
